{
    "CUE Template": { "prefix": "CUE Template",
      "body": [
        "CATALOG 0602445084999",
        "REM UPC 0602445084999",
        "REM DISCID 0F046002",
        "REM GENRE \"Industrial metal\"",
        "REM DATE \"2022-04-29\"",
        "REM DISCNUMBER 1",
        "REM TOTALDISCS 1",
        "REM COMMENT \"This is a comment for ZEIT album\"",
        "CDTEXTFILE \"cdtextfile.cdt\"",
        "PERFORMER \"Rammstein\"",
        "TITLE \"Zeit\"",
        "FILE \"Zeit.flac\" WAVE",
        "\tTRACK 01 ${1|AUDIO,MODE1/2048,MODE1/2352,MODE2/2336,MODE2/2352,CDI/2336,CDI/2352,CDG|}",
        "\t\tPERFORMER \"Rammstein\"",
        "\t\tTITLE \"Armee der Tristen\"",
        "\t\tSONGWRITER \"Richard Z. Kruspe, Paul Landers, Till Lindemann, Christian Lorenz, Oliver Riedel and Christoph Schneider\"",
        "\t\tISRC USSM10207885",
        "\t\tREM GENRE \"Industrial metal\"",
        "\t\tREM DATE \"2022-04-29\"",
        "\t\tREM COMMENT \"This is a comment for Armee der Tristen track\"",
        "\t\tFLAGS ${2|DCP,4CH,PRE,SCMS|}",
        "\t\tPREGAP 00:00:00",
        "\t\tINDEX 00 00:00:00",
        "\t\tINDEX 01 03:27:00",
        "\t\tPOSTGAP 00:00:00",
        "\tTRACK 02 ${3|AUDIO,MODE1/2048,MODE1/2352,MODE2/2336,MODE2/2352,CDI/2336,CDI/2352,CDG|}",
        "\t\tPERFORMER \"Rammstein\"",
        "\t\tTITLE \"Zeit\"",
        "\t\tSONGWRITER \"Richard Z. Kruspe, Paul Landers, Till Lindemann, Christian Lorenz, Oliver Riedel and Christoph Schneider\"",
        "\t\tISRC USSM10207885",
        "\t\tREM COMMENT \"This is a comment for Zeit track\"",
        "\t\tFLAGS ${4|DCP,4CH,PRE,SCMS|}",
        "\t\tINDEX 01 03:28:00"],
      "description": "Add A New CUE Sheet Template\n"
    },
    "Track Template": { "prefix": "Track Template",
      "body": [
        "TRACK 01 ${1|AUDIO,MODE1/2048,MODE1/2352,MODE2/2336,MODE2/2352,CDI/2336,CDI/2352,CDG|}",
        "\tPERFORMER \"Artist Name\"",
        "\tTITLE \"Track Name\"",
        "\tSONGWRITER \"Songwriter's Name\"",
        "\tISRC XXXXX1234567",
        "\tREM COMMENT \"Comment For This Track\"",
        "\tFLAGS ${2|DCP,4CH,PRE,SCMS|}",
        "\tPREGAP 00:00:00",
        "\tINDEX 00 00:00:00",
        "\tINDEX 01 00:00:00",
        "\tPOSTGAP 00:00:00"],
      "description": "Add A New Track Template\n"
    },
  
    "_SECTION_1_HEAD": "Head of CUE Sheet File",
    "CATALOG": { "scope": "cuesheet", "prefix": "CATALOG (command)", "body": "CATALOG 1234567890123", "":"", "description": "CATALOG (command)\n You can use\n the CATALOG command to\n specify your disc’s\n Media Catalog Number (MCN).\n The MCN is encoded\n according to UPC/EAN\n rules. You typically use\n this command only when\n mastering a CD-ROM for\n commercial production.\n\n Syntax:\n CATALOG MCN\n MCN - Media Catalog Number,\n must be 13 characters.\n"},
    "REM": { "scope": "cuesheet", "prefix": "REM (command)", "body": "REM Your Comments", "description": "REM (command)\n You can use\n the REM command to add\n comments in your\n CUE SHEET file. CDRWIN does\n not compile lines in your\n cuesheet that start with\n the REM command. Successive\n lines of comments must\n begin with the REM command.\n\n Syntax:\n REM string\n string - Your comments.\n There is no restriction\n on how long your comments\n can be, but successive\n lines of comments must\n begin with the REM command.\n" },
    "UPC": { "scope": "cuesheet", "prefix": "UPC (command)", "body": "REM UPC 1234567890123", "description": "UPC (command)\n The UPC is a Barcode and\n not necessarily the same\n as a CATALOG, and can be\n 12-13 digits in length.\n\n Syntax:\n UPC code\n code - 12-13 digits.\n" },
    "DISCID": { "scope": "cuesheet", "prefix": "DISCID (command)", "body": "REM DISCID 00000000", "description": "DISCID (command)\n The DISCID is\n an 8-symbols hexadecimal\n (base-16) number, computed\n using data from a CD's\n Table-of-Contents (TOC) in\n MSF (Minute Second Frame)\n form.\n\n Syntax:\n DISCID code\n code - 8 characters.\n" },
    "GENRE": { "scope": "cuesheet", "prefix": "GENRE (command)", "body": "REM GENRE \"${1|Rock,Jazz,Blues,Pop,Rap,R&B,Other|}\"", "description": "GENRE (command)\n A track or a CD-Disc genre.\n For example: Rock, Jazz\n\n Syntax:\n GENRE \"string\"\n string - a track or\n a CD-Disc genre.\n It must be enclosed\n in quotation marks.\n" },
    "DATE": { "scope": "cuesheet", "prefix": "DATE (command)", "body": "REM DATE \"YYYY-MM-DD\"", "description": "DATE (command)\n The date of release.\n\n Syntax:\n DATE \"YYYY\"\n or\n DATE \"YYYY-MM-DD\"\n YYYY - the year\n MM - the month\n DD - the day\n of release.\n It must be enclosed\n in quotation marks.\n" },
    "DISCNUMBER": { "scope": "cuesheet", "prefix": "DISCNUMBER (command)", "body": "REM DISCNUMBER 1", "description": "DISCNUMBER (command)\n You can use\n the DISCNUMBER command to\n specify your disc number\n in the release.\n\n For example:\n DISCNUMBER 1\n\n Syntax:\n DISCNUMBER num\n num - from 1 to total discs\n in the release.\n" },
    "TOTALDISCS": { "scope": "cuesheet", "prefix": "TOTALDISCS (command)", "body": "REM TOTALDISCS 1", "description": "TOTALDISCS (command)\n You can use\n the TOTALDISCS command to\n specify total discs\n in the release.\n\n An example for 2 discs:\n TOTALDISCS 2\n\n Syntax:\n TOTALDISCS num\n num - total discs\n in the release.\n" },
    "COMMENT": { "scope": "cuesheet", "prefix": "COMMENT (command)", "body": "REM COMMENT \"ExactAudioCopy vX.XX\"", "description": "COMMENT (command)\n You can use\n the COMMENT command\n to specify the comments for\n a CD-Disk or a track.\n\n For example:\n ExactAudioCopy v0.01\n\n Syntax:\n COMMENT \"string\"\n string - Any comments.\n If the string contains any\n spaces, it must be enclosed\n in quotation marks.\n" },
    "CDTEXTFILE": { "scope": "cuesheet", "prefix": "CDTEXTFILE (command)", "body": "CDTEXTFILE \"cdtextfile.cdt\"", "description": "CDTEXTFILE (command)\n Use the CDTEXTFILE command\n to specify the name of the\n file that contains the\n encoded CD-Text information\n for the disc. This command\n is only used with files that\n were either created with\n CDRWIN’s graphical CD-Text\n editor, or generated\n automatically by the\n software when copying\n a CD-Text enhanced disc.\n\n Syntax:\n CDTEXTFILE \"FileName\"\n FileName - The CD-Text\n file’s filename (can\n include device/directory).\n If the filename contains\n any spaces, then it must be\n enclosed in quotation marks.\n" },
    
    "_SECTION_2_TRACK_INFO": "A track information",
    "TRACK": { "scope": "cuesheet", "prefix": "TRACK (command)", "body": "TRACK 01 ${1|AUDIO,MODE1/2048,MODE1/2352,MODE2/2336,MODE2/2352,CDI/2336,CDI/2352,CDG|}", "description": "TRACK (command)\n A number between 01 and 99\n indicating the track number.\n\n Syntax:\n TRACK num Type\n num - Track number (1 to 99)\n Type - Track datatype:\n \t\tAUDIO\n \t\tMODE1/2048\n \t\tMODE1/2352\n \t\tMODE2/2336\n \t\tMODE2/2352\n \t\tCDI/2336\n \t\tCDI/2352\n \t\tCDG\n" },
    "PERFORMER": { "scope": "cuesheet", "prefix": "PERFORMER (command)", "body": "PERFORMER \"Performer's Name\"", "description": "PERFORMER (command)\n You can use\n the PERFORMER command\n to specify the name of\n a performer for a\n CD-Text enhanced disc.\n\n Syntax:\n PERFORMER \"string\"\n string - performer's name.\n Name is 1 to 80 characters.\n If the string contains any\n spaces, it must be enclosed\n in quotation marks.\n" },
    "TITLE": { "scope": "cuesheet", "prefix": "TITLE (command)", "body": "TITLE \"Track Name\"", "description": "TITLE (command)\n You can use\n the TITLE command to\n specify a title for a\n CD-Text enhanced disc.\n\n Syntax:\n TITLE \"string\"\n string - the track or\n the disc name.\n Name is 1 to 80 characters.\n If the string contains any\n spaces, it must be enclosed\n in quotation marks.\n" },
    "SONGWRITER": { "scope": "cuesheet", "prefix": "SONGWRITER (command)", "body": "SONGWRITER \"Songwriter's Name\"", "description": "SONGWRITER (command)\n You can use\n the SONGWRITER command\n to specify the name of\n a songwriter for a\n CD-Text enhanced disc.\n\n Syntax:\n SONGWRITER \"string\"\n string - songwriter's name.\n Name is 1 to 80 characters.\n If the string contains any\n spaces, it must be enclosed\n in quotation marks.\n" },
    "ISRC": { "scope": "cuesheet", "prefix": "ISRC (command)", "body": "ISRC ABCDE1234567", "description": "ISRC (command)\n You can use the IRSC command\n to specify a track's\n International Standard\n Recording Code (ISRC).\n You typically use this\n command only when mastering\n a CD-ROM for commercial\n production.\n\n Syntax:\n ISRC code\n code - 12 characters.\n The first five characters\n are alphanumeric, the last\n seven are numeric only.\n" },
    "PREGAP": { "scope": "cuesheet", "prefix": "PREGAP (command)", "body": "PREGAP 00:00:00", "description": "PREGAP (command)\n A space dividing tracks,\n recorded before the track\n data area. The length of\n the pre-gap varies with the\n CD recorder and the types of\n tracks. Where successive\n tracks are both of data, one\n track is separated from\n another by a track pre-gap\n of 150 sectors (2 seconds).\n Where successive tracks are\n of different types (audio\n or data), the pre-gap is\n usually of 225 sectors (or\n three seconds).\n\n Syntax:\n POSTGAP mm:ss:ff\n mm - minutes\n ss - seconds\n ff - frames\n There are 75 frames per sec.\n" },
    "INDEX": { "scope": "cuesheet", "prefix": "INDEX (command)", "body": "INDEX 01 00:00:00", "description": "INDEX (command)\n You can use\n the INDEX command to specify\n indexes (or subindexes)\n within a track.\n\n Syntax:\n INDEX num mm:ss:ff\n num - index number (00 to 99)\n mm - minutes (00 to ∞)\n ss - seconds (00 to 59)\n ff - frames (00 to 75)\n" },
    "POSTGAP": { "scope": "cuesheet", "prefix": "POSTGAP (command)", "body": "POSTGAP 00:00:00", "description": "POSTGAP (command)\n A space dividing tracks,\n recorded at the end of the\n track’s data area. The\n post-gap is 150 sectors\n (2 seconds) long and is\n required only where\n successive tracks are of\n different types.\n\n Syntax:\n POSTGAP mm:ss:ff\n mm - minutes\n ss - seconds\n ff - frames\n There are 75 frames per sec.\n" },
    
    "_SECTION_3_FILE": "FILE and Type of File",
    "FILE \"Audiofile.flac\" File Type": { "prefix": "FILE (command)", "body": "FILE \"Audiofile.flac\" ${1|WAVE,AIFF,MP3,BINARY,MOTOROLA|}", "description": "FILE (command)\n Use the FILE command to\n specify the data or audio\n file to be written to your\n recorder.\n\n Syntax:\n FILE \"FileName\" FileType\n FileName - The audio or data\n \tfile’s filename (can\n \tinclude device and\n \tdirectory). If the\n \tfilename contains any\n \tspaces, the filename\n \tmust be enclosed\n \tin quotation marks.\n FileType - The audio or\n \tdata file’s filetype:\n \t\tWAVE\n \t\tAIFF\n \t\tMP3\n \t\tMOTOROLA\n \t\tBINARY\n" },
    "BINARY": { "scope": "cuesheet", "prefix": "BINARY (File Type)", "body": "BINARY", "description": "BINARY (File Type)\n Intel binary file.\n File extension for Intel\n (least significant byte first)\n binary format. This is the\n default file format when you\n create an image file from\n the Extract Disc \nImage/Cuesheet Window.\n" },
    "MOTOROLA": { "scope": "cuesheet", "prefix": "MOTOROLA (File Type)", "body": "MOTOROLA", "description": "MOTOROLA (File Type)\n Motorola binary file.\n File extension for Motorola\n (most significant byte last)\n binary format.\n" },
    "AIFF": { "scope": "cuesheet", "prefix": "AIFF (File Type)", "body": "AIFF", "description": "AIFF (File Type)\n File extension for\n Audio Interchange File Format\n (AIFF).\n AIFF is the standard audio format\n for Macintosh computers.\n" },
    "WAVE": { "scope": "cuesheet", "prefix": "WAVE (File Type)", "body": "WAVE", "description": "WAVE (File Type)\n File extension for waveform\n audio format. Waveform is\n the standard audio format\n for PCs and is the default\n file format when you create\n an image file with the\n Select Tracks option in the\n Extract Tracks Window.\n" },
    "MP3": { "scope": "cuesheet", "prefix": "MP3 (File Type)", "body": "MP3", "description": "MP3 (File Type)\n Moving Pictures Expert Group,\n Audio Layer 3.\n A type of audio compression\n that provides high quality\n sound in reduced file sizes\n when compared to\n uncompressed audio formats,\n such as waveform.\n CDRWIN does not create image\n files in MP3 format, but\n you can record MP3 files to\n a disc from the Record Disc\n dialog box.\n" },
    
    "_SECTION_4_TRACK_TYPE": "TRACK Type. The following datatypes are allowed:",
    "AUDIO": { "prefix": "AUDIO (Track Type)", "body": "AUDIO", "description": "AUDIO (Track Type)\n Audio/Music (2352).\n" },
    "MODE1/2048": { "scope": "cuesheet", "prefix": "MODE1/2048 (Track Type)", "body": "MODE1/2048", "description": "MODE1/2048 (Track Type)\n CD-ROM Mode1 Data (cooked).\n" },
    "MODE1/2352": { "scope": "cuesheet", "prefix": "MODE1/2352 (Track Type)", "body": "MODE1/2352", "description": "MODE1/2352 (Track Type)\n CD-ROM Mode1 Data (raw).\n" },
    "MODE2/2336": { "scope": "cuesheet", "prefix": "MODE2/2336 (Track Type)", "body": "MODE2/2336", "description": "MODE2/2336 (Track Type)\n CD-ROM XA Mode2 Data.\n" },
    "MODE2/2352": { "scope": "cuesheet", "prefix": "MODE2/2352 (Track Type)", "body": "MODE2/2352", "description": "MODE2/2352 (Track Type)\n CD-ROM XA Mode2 Data.\n" },
    "CDI/2336": { "scope": "cuesheet", "prefix": "CDI/2336 (Track Type)", "body": "CDI/2336", "description": "CDI/2336 (Track Type)\n CD-I Mode2 Data.\n" },
    "CDI/2352": { "scope": "cuesheet", "prefix": "CDI/2352 (Track Type)", "body": "CDI/2352", "description": "CDI/2352 (Track Type)\n CD-I Mode2 Data.\n" },
    "CDG": { "scope": "cuesheet", "prefix": "CDG (Track Type)", "body": "CDG", "description": "CDG (Track Type)\n Karaoke CD+G (2448)\n" },
    
    "_SECTION_5_FLAGS": "FLAGS - You can use the FLAGS command to set special subcode flags within a track. You can specify one or more flags for a track",
    "FLAGS": { "scope": "cuesheet", "prefix": "FLAGS (command)", "body": "FLAGS ${1|DCP,4CH,PRE,SCMS|}", "description": "FLAGS (command)\n You can use\n the FLAGS command to set\n special subcode flags within\n a track. You can specify one\n or more flags for a track.\n\n Syntax:\n FLAGS Type\n Type - Specifies one or more\n track flags. The following\n flags are allowed:\n \t\tDCP\n \t\t4CH\n \t\tPRE\n \t\tSCMS\n\n" },
    "DCP": { "scope": "cuesheet", "prefix": "DCP (Flag)", "body": "DCP", "description": "DCP (Flag)\n Digital copy permitted.\n\n" },
    "4CH": { "scope": "cuesheet", "prefix": "4CH (Flag)", "body": "4CH", "description": "4CH (Flag)\n Four channel audio.\n\n" },
    "PRE": { "scope": "cuesheet", "prefix": "PRE (Flag)", "body": "PRE", "description": "PRE (Flag)\n Pre-emphasis enabled\n (audio tracks only).\n\n" },
    "SCMS": { "scope": "cuesheet", "prefix": "SCMS (Flag)", "body": "SCMS", "description": "SCMS (Flag)\n Serial Copy\n Management System\n\n (not supported by\n all recorders).\n\n" },
  
    "_SECTION_6_Additionals": "Additionals",
    "DISC": { "scope": "cuesheet", "prefix": "DISC # of # (command)", "body": "REM DISCNUMBER ${1|1,2,3,4,5,6,7,8|}\nREM TOTALDISCS ${2|1,2,3,4,5,6,7,8|}", "description": "DISC # of # (command)\n" }
  }